<?xml version="1.0" encoding="UTF-8" standalone="no"?>
<svg width="613mm" height="364mm" viewBox="0 0 613 364" version="1.1" id="svg5" xmlns="http://www.w3.org/2000/svg" xmlns:svg="http://www.w3.org/2000/svg">
<g id="checkers">
<rect width="30" height="30" x="6.5" y="2"></rect>
<rect width="30" height="30" x="66.5" y="2"></rect>
<rect width="30" height="30" x="126.5" y="2"></rect>
<rect width="30" height="30" x="186.5" y="2"></rect>
<rect width="30" height="30" x="246.5" y="2"></rect>
<rect width="30" height="30" x="306.5" y="2"></rect>
<rect width="30" height="30" x="366.5" y="2"></rect>
<rect width="30" height="30" x="426.5" y="2"></rect>
<rect width="30" height="30" x="486.5" y="2"></rect>
<rect width="30" height="30" x="546.5" y="2"></rect>
<rect width="30" height="30" x="36.5" y="32"></rect>
<rect width="30" height="30" x="96.5" y="32"></rect>
<rect width="30" height="30" x="156.5" y="32"></rect>
<rect width="30" height="30" x="216.5" y="32"></rect>
<rect width="30" height="30" x="276.5" y="32"></rect>
<rect width="30" height="30" x="336.5" y="32"></rect>
<rect width="30" height="30" x="396.5" y="32"></rect>
<rect width="30" height="30" x="456.5" y="32"></rect>
<rect width="30" height="30" x="516.5" y="32"></rect>
<rect width="30" height="30" x="576.5" y="32"></rect>
<rect width="30" height="30" x="6.5" y="62"></rect>
<rect width="30" height="30" x="66.5" y="62"></rect>
<rect width="30" height="30" x="126.5" y="62"></rect>
<rect width="30" height="30" x="186.5" y="62"></rect>
<rect width="30" height="30" x="246.5" y="62"></rect>
<rect width="30" height="30" x="306.5" y="62"></rect>
<rect width="30" height="30" x="366.5" y="62"></rect>
<rect width="30" height="30" x="426.5" y="62"></rect>
<rect width="30" height="30" x="486.5" y="62"></rect>
<rect width="30" height="30" x="546.5" y="62"></rect>
<rect width="30" height="30" x="36.5" y="92"></rect>
<rect width="30" height="30" x="96.5" y="92"></rect>
<rect width="30" height="30" x="156.5" y="92"></rect>
<rect width="30" height="30" x="216.5" y="92"></rect>
<rect width="30" height="30" x="276.5" y="92"></rect>
<rect width="30" height="30" x="336.5" y="92"></rect>
<rect width="30" height="30" x="396.5" y="92"></rect>
<rect width="30" height="30" x="456.5" y="92"></rect>
<rect width="30" height="30" x="516.5" y="92"></rect>
<rect width="30" height="30" x="576.5" y="92"></rect>
<rect width="30" height="30" x="6.5" y="122"></rect>
<rect width="30" height="30" x="66.5" y="122"></rect>
<rect width="30" height="30" x="126.5" y="122"></rect>
<rect width="30" height="30" x="186.5" y="122"></rect>
<rect width="30" height="30" x="246.5" y="122"></rect>
<rect width="30" height="30" x="306.5" y="122"></rect>
<rect width="30" height="30" x="366.5" y="122"></rect>
<rect width="30" height="30" x="426.5" y="122"></rect>
<rect width="30" height="30" x="486.5" y="122"></rect>
<rect width="30" height="30" x="546.5" y="122"></rect>
<rect width="30" height="30" x="36.5" y="152"></rect>
<rect width="30" height="30" x="96.5" y="152"></rect>
<rect width="30" height="30" x="156.5" y="152"></rect>
<rect width="30" height="30" x="216.5" y="152"></rect>
<rect width="30" height="30" x="276.5" y="152"></rect>
<rect width="30" height="30" x="336.5" y="152"></rect>
<rect width="30" height="30" x="396.5" y="152"></rect>
<rect width="30" height="30" x="456.5" y="152"></rect>
<rect width="30" height="30" x="516.5" y="152"></rect>
<rect width="30" height="30" x="576.5" y="152"></rect>
<rect width="30" height="30" x="6.5" y="182"></rect>
<rect width="30" height="30" x="66.5" y="182"></rect>
<rect width="30" height="30" x="126.5" y="182"></rect>
<rect width="30" height="30" x="186.5" y="182"></rect>
<rect width="30" height="30" x="246.5" y="182"></rect>
<rect width="30" height="30" x="306.5" y="182"></rect>
<rect width="30" height="30" x="366.5" y="182"></rect>
<rect width="30" height="30" x="426.5" y="182"></rect>
<rect width="30" height="30" x="486.5" y="182"></rect>
<rect width="30" height="30" x="546.5" y="182"></rect>
<rect width="30" height="30" x="36.5" y="212"></rect>
<rect width="30" height="30" x="96.5" y="212"></rect>
<rect width="30" height="30" x="156.5" y="212"></rect>
<rect width="30" height="30" x="216.5" y="212"></rect>
<rect width="30" height="30" x="276.5" y="212"></rect>
<rect width="30" height="30" x="336.5" y="212"></rect>
<rect width="30" height="30" x="396.5" y="212"></rect>
<rect width="30" height="30" x="456.5" y="212"></rect>
<rect width="30" height="30" x="516.5" y="212"></rect>
<rect width="30" height="30" x="576.5" y="212"></rect>
<rect width="30" height="30" x="6.5" y="242"></rect>
<rect width="30" height="30" x="66.5" y="242"></rect>
<rect width="30" height="30" x="126.5" y="242"></rect>
<rect width="30" height="30" x="186.5" y="242"></rect>
<rect width="30" height="30" x="246.5" y="242"></rect>
<rect width="30" height="30" x="306.5" y="242"></rect>
<rect width="30" height="30" x="366.5" y="242"></rect>
<rect width="30" height="30" x="426.5" y="242"></rect>
<rect width="30" height="30" x="486.5" y="242"></rect>
<rect width="30" height="30" x="546.5" y="242"></rect>
<rect width="30" height="30" x="36.5" y="272"></rect>
<rect width="30" height="30" x="96.5" y="272"></rect>
<rect width="30" height="30" x="156.5" y="272"></rect>
<rect width="30" height="30" x="216.5" y="272"></rect>
<rect width="30" height="30" x="276.5" y="272"></rect>
<rect width="30" height="30" x="336.5" y="272"></rect>
<rect width="30" height="30" x="396.5" y="272"></rect>
<rect width="30" height="30" x="456.5" y="272"></rect>
<rect width="30" height="30" x="516.5" y="272"></rect>
<rect width="30" height="30" x="576.5" y="272"></rect>
<rect width="30" height="30" x="6.5" y="302"></rect>
<rect width="30" height="30" x="66.5" y="302"></rect>
<rect width="30" height="30" x="126.5" y="302"></rect>
<rect width="30" height="30" x="186.5" y="302"></rect>
<rect width="30" height="30" x="246.5" y="302"></rect>
<rect width="30" height="30" x="306.5" y="302"></rect>
<rect width="30" height="30" x="366.5" y="302"></rect>
<rect width="30" height="30" x="426.5" y="302"></rect>
<rect width="30" height="30" x="486.5" y="302"></rect>
<rect width="30" height="30" x="546.5" y="302"></rect>
<rect width="30" height="30" x="36.5" y="332"></rect>
<rect width="30" height="30" x="96.5" y="332"></rect>
<rect width="30" height="30" x="156.5" y="332"></rect>
<rect width="30" height="30" x="216.5" y="332"></rect>
<rect width="30" height="30" x="276.5" y="332"></rect>
<rect width="30" height="30" x="336.5" y="332"></rect>
<rect width="30" height="30" x="396.5" y="332"></rect>
<rect width="30" height="30" x="456.5" y="332"></rect>
<rect width="30" height="30" x="516.5" y="332"></rect>
<rect width="30" height="30" x="576.5" y="332"></rect>

</g>
</svg>
